<svg width="59" height="60" viewBox="0 0 59 60" fill="none" xmlns="http://www.w3.org/2000/svg">
<g filter="url(#filter0_d_1_132)">
<circle cx="24" cy="24" r="24" fill="white"/>
</g>
<mask id="mask0_1_132" style="mask-type:luminance" maskUnits="userSpaceOnUse" x="15" y="20" width="5" height="10">
<path fill-rule="evenodd" clip-rule="evenodd" d="M15 20.4011H19.4324V29.7389H15V20.4011Z" fill="white"/>
</mask>
<g mask="url(#mask0_1_132)">
<path fill-rule="evenodd" clip-rule="evenodd" d="M19.4324 27.0861L18.7362 29.6851L16.1917 29.7389C15.4314 28.3285 15 26.7147 15 25C15 23.3418 15.4033 21.7779 16.1182 20.4011H16.1186L18.3839 20.8163L19.3764 23.068C19.1687 23.6737 19.0555 24.3235 19.0555 25C19.0555 25.7341 19.1886 26.4373 19.4324 27.0861Z" fill="#FBBB00"/>
</g>
<mask id="mask1_1_132" style="mask-type:luminance" maskUnits="userSpaceOnUse" x="25" y="23" width="10" height="10">
<path fill-rule="evenodd" clip-rule="evenodd" d="M25.2198 23.1318H35V32.7983H25.2198V23.1318Z" fill="white"/>
</mask>
<g mask="url(#mask1_1_132)">
<path fill-rule="evenodd" clip-rule="evenodd" d="M34.8252 23.1318C34.9401 23.7367 35 24.3615 35 25C35 25.7159 34.9247 26.4143 34.7813 27.0878C34.2945 29.3802 33.0226 31.3818 31.2605 32.7983L31.2599 32.7978L28.4066 32.6523L28.0027 30.1313C29.172 29.4456 30.0857 28.3725 30.5671 27.0878H25.2198V23.1318H34.8252Z" fill="#518EF8"/>
</g>
<path fill-rule="evenodd" clip-rule="evenodd" d="M31.26 32.7979L31.2604 32.7984C29.5467 34.176 27.3697 35.0001 25.0001 35.0001C21.1918 35.0001 17.8808 32.8715 16.1918 29.7392L19.4324 27.0864C20.277 29.3401 22.4511 30.9446 25.0001 30.9446C26.0956 30.9446 27.1221 30.6485 28.0028 30.1315L31.26 32.7979Z" fill="#28B446"/>
<path fill-rule="evenodd" clip-rule="evenodd" d="M31.3829 17.3023L28.1434 19.9544C27.2319 19.3846 26.1543 19.0555 25 19.0555C22.3934 19.0555 20.1785 20.7335 19.3764 23.0681L16.1186 20.4012H16.1182C17.7824 17.1922 21.1351 15 25 15C27.4263 15 29.651 15.8643 31.3829 17.3023Z" fill="#F14336"/>
<defs>
<filter id="filter0_d_1_132" x="-9" y="-8" width="68" height="68" filterUnits="userSpaceOnUse" color-interpolation-filters="sRGB">
<feFlood flood-opacity="0" result="BackgroundImageFix"/>
<feColorMatrix in="SourceAlpha" type="matrix" values="0 0 0 0 0 0 0 0 0 0 0 0 0 0 0 0 0 0 127 0" result="hardAlpha"/>
<feOffset dx="1" dy="2"/>
<feGaussianBlur stdDeviation="5"/>
<feColorMatrix type="matrix" values="0 0 0 0 0 0 0 0 0 0 0 0 0 0 0 0 0 0 0.1 0"/>
<feBlend mode="normal" in2="BackgroundImageFix" result="effect1_dropShadow_1_132"/>
<feBlend mode="normal" in="SourceGraphic" in2="effect1_dropShadow_1_132" result="shape"/>
</filter>
</defs>
</svg>
